<?xml version="1.0" encoding="UTF-8"?>
<svg version="1.1" xmlns="http://www.w3.org/2000/svg" width="877" height="751">
<path d="M0 0 C289.41 0 578.82 0 877 0 C877 247.83 877 495.66 877 751 C587.59 751 298.18 751 0 751 C0 503.17 0 255.34 0 0 Z " fill="#FEFEFE" transform="translate(0,0)"/>
<path d="M0 0 C0.89200527 0.00291284 1.78401053 0.00582568 2.70304626 0.00882679 C3.64311773 0.00797237 4.5831892 0.00711794 5.55174768 0.00623763 C8.72715366 0.00457995 11.90250775 0.01010888 15.07790893 0.01555592 C17.34403746 0.01583775 19.61016608 0.01568013 21.87629455 0.01511341 C28.04960011 0.0148253 34.22288642 0.02072428 40.39618748 0.02768737 C46.83977119 0.03391859 53.28335528 0.03452452 59.72694153 0.03571278 C70.5490126 0.03847249 81.37107574 0.04472804 92.19314331 0.05364186 C103.34190597 0.06281523 114.4906667 0.06989643 125.63943237 0.07414967 C126.32617863 0.07441239 127.01292489 0.07467512 127.72048164 0.0749458 C131.16554738 0.0762508 134.61061314 0.07751452 138.0556789 0.0787577 C166.65415816 0.08913121 195.25262995 0.10682442 223.85110229 0.12908131 C223.26091659 3.15471091 222.62474516 6.05079803 221.6269812 8.96843678 C221.38190323 9.68993412 221.13682525 10.41143147 220.88432068 11.15479237 C220.48502601 12.31382321 220.48502601 12.31382321 220.07766479 13.49626881 C219.79773178 14.31596653 219.51779876 15.13566426 219.22938293 15.9802013 C218.62725753 17.74112549 218.02358453 19.50152111 217.41851562 21.26143605 C216.46999866 24.02184431 215.52724235 26.78417084 214.58523315 29.54680592 C211.62205022 38.21449545 208.61373713 46.85992839 205.44094604 55.45330006 C204.92250076 56.86815681 204.40410724 58.28303253 203.88577026 59.69792897 C202.93133314 62.30037602 201.95477625 64.89297801 200.96487182 67.48210865 C200.53674194 68.64564869 200.10861206 69.80918873 199.66750854 71.00798756 C199.29053833 72.00386891 198.91356811 72.99975025 198.52517456 74.02580982 C196.73545467 82.26526275 200.31031547 89.93673393 203.08547729 97.58611256 C203.72934891 99.39034436 203.72934891 99.39034436 204.38622802 101.23102528 C205.54184586 104.46784058 206.70784598 107.70082126 207.87619537 110.93305928 C208.85032124 113.63209996 209.81822782 116.33335324 210.78615516 119.03462178 C216.40332543 134.70870621 222.10240918 150.35111767 227.95315307 165.93962818 C232.93107472 179.22435215 237.70071188 192.58296603 242.47610229 205.94158131 C250.29421657 227.80712961 258.13130352 249.6613939 266.34377807 271.38274342 C270.11997002 281.375241 273.71631679 291.41167117 277.17556518 301.51824147 C280.65012345 311.63496049 284.27255881 321.69628655 287.91360229 331.75408131 C288.20940185 332.57122608 288.50520141 333.38837086 288.8099646 334.2302776 C290.48798684 338.86406926 292.16850369 343.49694954 293.85110229 348.12908131 C297.9822881 345.37495744 298.51541601 342.78057494 299.48391479 338.01580006 C299.72754761 336.43218678 299.72754761 336.43218678 299.97610229 334.81658131 C300.14368042 333.7479485 300.31125854 332.67931568 300.48391479 331.57830006 C300.60508667 330.77005787 300.72625854 329.96181568 300.85110229 329.12908131 C301.51110229 329.12908131 302.17110229 329.12908131 302.85110229 329.12908131 C302.93360229 327.85033131 303.01610229 326.57158131 303.10110229 325.25408131 C303.68327882 319.7885733 305.61499178 315.11092753 307.85110229 310.12908131 C308.51110229 310.12908131 309.17110229 310.12908131 309.85110229 310.12908131 C309.90008667 309.54900318 309.94907104 308.96892506 309.99953979 308.37126881 C310.44759634 303.68985039 311.14912329 299.55422672 312.85110229 295.12908131 C313.51110229 295.12908131 314.17110229 295.12908131 314.85110229 295.12908131 C314.97485229 293.93283131 315.09860229 292.73658131 315.22610229 291.50408131 C315.67435283 287.85311318 316.55557066 284.58383232 317.85110229 281.12908131 C318.51110229 281.12908131 319.17110229 281.12908131 319.85110229 281.12908131 C319.97485229 279.93283131 320.09860229 278.73658131 320.22610229 277.50408131 C320.67435283 273.85311318 321.55557066 270.58383232 322.85110229 267.12908131 C323.51110229 267.12908131 324.17110229 267.12908131 324.85110229 267.12908131 C324.97485229 265.93283131 325.09860229 264.73658131 325.22610229 263.50408131 C325.67435283 259.85311318 326.55557066 256.58383232 327.85110229 253.12908131 C328.51110229 253.12908131 329.17110229 253.12908131 329.85110229 253.12908131 C329.85110229 251.47908131 329.85110229 249.82908131 329.85110229 248.12908131 C330.51110229 248.12908131 331.17110229 248.12908131 331.85110229 248.12908131 C331.93360229 246.85033131 332.01610229 245.57158131 332.10110229 244.25408131 C332.68327882 238.7885733 334.61499178 234.11092753 336.85110229 229.12908131 C337.51110229 229.12908131 338.17110229 229.12908131 338.85110229 229.12908131 C338.90008667 228.46521412 338.94907104 227.80134693 338.99953979 227.11736256 C339.7421392 218.3470075 339.7421392 218.3470075 341.85110229 214.12908131 C342.51110229 214.12908131 343.17110229 214.12908131 343.85110229 214.12908131 C343.85110229 212.80908131 343.85110229 211.48908131 343.85110229 210.12908131 C344.51110229 210.12908131 345.17110229 210.12908131 345.85110229 210.12908131 C346.18110229 206.82908131 346.51110229 203.52908131 346.85110229 200.12908131 C347.51110229 200.12908131 348.17110229 200.12908131 348.85110229 200.12908131 C348.90008667 199.54900318 348.94907104 198.96892506 348.99953979 198.37126881 C349.44759634 193.68985039 350.14912329 189.55422672 351.85110229 185.12908131 C352.51110229 185.12908131 353.17110229 185.12908131 353.85110229 185.12908131 C353.85110229 183.80908131 353.85110229 182.48908131 353.85110229 181.12908131 C354.51110229 181.12908131 355.17110229 181.12908131 355.85110229 181.12908131 C355.90717651 180.15068287 355.90717651 180.15068287 355.96438354 179.15251881 C356.03012573 178.27853443 356.09586792 177.40455006 356.16360229 176.50408131 C356.25061401 175.21630787 356.25061401 175.21630787 356.33938354 173.90251881 C356.95197156 170.58238526 358.30466249 168.12292783 359.85110229 165.12908131 C360.58479335 162.97761713 361.27234331 160.80988107 361.91360229 158.62908131 C363.15673354 154.43538554 364.44723416 150.27205214 365.85110229 146.12908131 C366.51110229 146.12908131 367.17110229 146.12908131 367.85110229 146.12908131 C367.90008667 145.54900318 367.94907104 144.96892506 367.99953979 144.37126881 C368.44759634 139.68985039 369.14912329 135.55422672 370.85110229 131.12908131 C371.51110229 131.12908131 372.17110229 131.12908131 372.85110229 131.12908131 C372.97485229 130.48970631 373.09860229 129.85033131 373.22610229 129.19158131 C375.76599591 116.74610259 375.76599591 116.74610259 377.85110229 112.12908131 C378.51110229 112.12908131 379.17110229 112.12908131 379.85110229 112.12908131 C379.85110229 110.47908131 379.85110229 108.82908131 379.85110229 107.12908131 C380.51110229 107.12908131 381.17110229 107.12908131 381.85110229 107.12908131 C382.18110229 103.82908131 382.51110229 100.52908131 382.85110229 97.12908131 C383.51110229 97.12908131 384.17110229 97.12908131 384.85110229 97.12908131 C384.97485229 96.48970631 385.09860229 95.85033131 385.22610229 95.19158131 C387.76599591 82.74610259 387.76599591 82.74610259 389.85110229 78.12908131 C390.51110229 78.12908131 391.17110229 78.12908131 391.85110229 78.12908131 C392.0657312 77.05593678 392.0657312 77.05593678 392.28469604 75.96111256 C393.14016479 71.68376881 393.99563354 67.40642506 394.85110229 63.12908131 C395.51110229 63.12908131 396.17110229 63.12908131 396.85110229 63.12908131 C396.81114136 62.40720631 396.77118042 61.68533131 396.73000854 60.94158131 C396.86172984 57.88224784 397.56339154 55.9195969 398.78860229 53.12908131 C400.2430683 49.79267183 401.24149884 46.72253324 401.85110229 43.12908131 C402.51110229 43.12908131 403.17110229 43.12908131 403.85110229 43.12908131 C403.95422729 41.95345631 404.05735229 40.77783131 404.16360229 39.56658131 C404.59347645 36.13952902 405.4831478 33.38921488 406.96047729 30.24626881 C408.58778199 26.3778515 409.68551465 22.32962149 410.88625854 18.31267506 C411.8201366 15.23125557 412.81920852 12.17890069 413.85110229 9.12908131 C414.51110229 9.12908131 415.17110229 9.12908131 415.85110229 9.12908131 C416.18110229 8.13908131 416.51110229 7.14908131 416.85110229 6.12908131 C427.52529928 6.10595803 438.19949035 6.0881663 448.87370723 6.07726914 C453.82964151 6.07204027 458.78555871 6.06494257 463.74148315 6.05364186 C468.52009065 6.04281309 473.29868167 6.0368045 478.07730049 6.03420407 C479.90463849 6.0323498 481.73197554 6.02872915 483.55930656 6.02335125 C486.10963558 6.01614095 488.65989566 6.01509036 491.21023315 6.01555592 C491.97339844 6.01196064 492.73656372 6.00836537 493.52285522 6.00466114 C498.73705013 6.01502915 498.73705013 6.01502915 499.85110229 7.12908131 C499.94787078 8.47141351 499.97557663 9.81880199 499.97530079 11.16461766 C499.97754808 12.04124944 499.97979538 12.91788123 499.98211077 13.82107762 C499.97817025 15.28511317 499.97817025 15.28511317 499.97415012 16.77872521 C499.97530397 17.809787 499.97645781 18.84084879 499.97764662 19.90315488 C499.98032173 23.40455053 499.97578382 26.90590143 499.97135681 30.40729481 C499.97179233 32.9242862 499.97266688 35.44127754 499.97394598 37.95826864 C499.97572368 43.45461368 499.97436613 48.95094451 499.97030777 54.4472881 C499.96428977 62.620236 499.96397037 70.79317704 499.96484976 78.96612676 C499.96616584 92.71219467 499.96281399 106.45825779 499.95683235 120.20432431 C499.95092206 133.82121068 499.94706777 147.43809507 499.94597954 161.05498272 C499.9459108 161.90058552 499.94584206 162.74618831 499.94577123 163.61741544 C499.94543292 167.91153387 499.94513153 172.20565231 499.94484436 176.49977075 C499.94274208 206.94139451 499.93599953 237.38301566 499.92654175 267.82463795 C499.91736231 297.40439041 499.91027625 326.98414216 499.90603393 356.56389576 C499.90583664 357.93075963 499.90583664 357.93075963 499.90563537 359.32523691 C499.90431689 368.47603124 499.90304107 377.62682558 499.90179651 386.77761991 C499.89926007 405.42003722 499.89643882 424.06245448 499.89344543 442.70487171 C499.89330814 443.56208267 499.89317085 444.41929362 499.8930294 445.30248066 C499.88382356 502.57801536 499.86774997 559.85354836 499.85110229 617.12908131 C469.82110229 617.12908131 439.79110229 617.12908131 408.85110229 617.12908131 C408.52110229 520.76908131 408.19110229 424.40908131 407.85110229 325.12908131 C395.97110229 354.82908131 384.09110229 384.52908131 371.85110229 415.12908131 C367.89110229 425.02908131 363.93110229 434.92908131 359.85110229 445.12908131 C356.71681737 453.10476169 353.58815888 461.08225824 350.47610229 469.06658131 C341.91017957 491.02752524 341.91017957 491.02752524 338.37453979 499.94548756 C337.9070935 501.12699391 337.43964721 502.30850025 336.95803589 503.52580982 C335.85110229 506.12908131 335.85110229 506.12908131 334.85110229 507.12908131 C332.78150627 507.24956306 330.70777036 507.29934017 328.6347937 507.3219524 C327.98597732 507.33012989 327.33716095 507.33830738 326.66868347 507.34673268 C324.51335343 507.37162333 322.35808937 507.38811127 320.20266479 507.40251881 C319.46814464 507.40784249 318.73362449 507.41316616 317.97684616 507.41865116 C314.08956453 507.44539796 310.20231521 507.46476839 306.31496948 507.47917897 C302.29388039 507.49583659 298.27360941 507.54061775 294.25282997 507.59155041 C291.16620675 507.62516067 288.07977922 507.63674941 284.99298996 507.64240605 C283.51054766 507.64913529 282.02811899 507.6644009 280.54585403 507.68829685 C278.47195258 507.7198244 276.40027684 507.72000615 274.32619995 507.7125774 C273.14563019 507.72066426 271.96506042 507.72875111 270.74871582 507.73708302 C267.85110229 507.12908131 267.85110229 507.12908131 265.99815124 504.71669728 C265.04483942 502.56613092 264.13166408 500.46810169 263.38625854 498.23845631 C263.14584839 497.53390309 262.90543823 496.82934986 262.65774292 496.10344654 C262.41217651 495.36940602 262.16661011 494.63536549 261.91360229 493.87908131 C260.12013352 488.65345531 258.25642007 483.57044806 255.91360229 478.56267506 C254.41780752 475.13664511 253.14471581 471.63557069 251.85110229 468.12908131 C250.02235871 463.17791268 248.11724818 458.31915342 245.90359253 453.52483326 C244.69534406 450.77453352 243.61738262 447.99042808 242.54641479 445.18376881 C242.10644165 444.03336109 241.6664685 442.88295338 241.21316284 441.69768482 C240.76368286 440.52004566 240.31420288 439.3424065 239.85110229 438.12908131 C239.00653387 435.92707283 238.16149039 433.72524648 237.31594604 431.52361256 C236.04785035 428.22107586 234.77976635 424.91853749 233.51321167 421.61540943 C229.66480832 411.59762768 225.66642108 401.65657106 221.53738159 391.75115162 C217.25830819 381.4856969 213.04328366 371.21878812 209.21828979 360.77361256 C205.71882598 351.44504188 201.77696426 342.28442183 197.85110229 333.12908131 C197.84779215 333.98531338 197.844482 334.84154545 197.84107155 335.72372395 C197.75963173 356.61743194 197.66747169 377.51106909 197.56357521 398.40467793 C197.51358532 408.5089235 197.46714155 418.61316152 197.42922729 428.71746022 C197.39614821 437.5307151 197.35623077 446.34390883 197.30831224 455.15709597 C197.28320443 459.81782407 197.26137799 464.47851243 197.24775833 469.13928944 C197.23479372 473.5387691 197.2125892 477.93811135 197.1837191 482.33751446 C197.17475445 483.94011075 197.1689796 485.54272909 197.16688865 487.14534909 C197.12268964 515.91247184 190.94545926 543.74717418 171.85110229 566.12908131 C171.12020386 566.99790943 170.38930542 567.86673756 169.63625854 568.76189381 C148.50071948 593.05476296 120.20266443 605.99198969 89.22610229 612.87908131 C87.88660522 613.17733814 87.88660522 613.17733814 86.52004761 613.48162037 C73.08808008 616.30557893 59.82268567 617.44565681 46.11672729 617.42986256 C44.66292972 617.43377092 43.20913324 617.43810977 41.75533813 617.44284779 C38.73351066 617.45022952 35.71180016 617.45007872 32.68996948 617.44475514 C29.63773616 617.44012611 26.58590148 617.44704463 23.53371948 617.46526295 C6.77312292 617.56433458 -9.66177163 617.58189219 -26.14889771 614.12908131 C-27.2748938 613.90470387 -28.40088989 613.68032643 -29.56100708 613.44914967 C-32.40254044 612.84245011 -35.21089512 612.16828 -38.02389771 611.44158131 C-39.01800659 611.1873943 -40.01211548 610.93320729 -41.03634888 610.67131764 C-63.31764137 604.78053674 -84.92511433 595.92029102 -104.14889771 583.12908131 C-105.78085083 582.0482024 -105.78085083 582.0482024 -107.44577271 580.94548756 C-137.3779136 560.82119773 -161.90820692 533.61388026 -174.82467896 499.60173756 C-175.74888989 497.17806936 -176.70739682 494.82867004 -177.75436646 492.46111256 C-178.86600858 489.80500406 -179.63330877 487.55759617 -180.14889771 484.75408131 C-180.75148046 481.77104767 -181.51196499 479.03632285 -182.58639771 476.19158131 C-187.29656149 462.22030231 -187.58461322 447.62561144 -187.43014771 433.0394817 C-187.39860383 430.0386236 -187.38911835 427.03829316 -187.38327271 424.03728443 C-187.37411332 422.09782496 -187.36374097 420.15837076 -187.35202271 418.21892506 C-187.34777283 417.33752354 -187.34352295 416.45612202 -187.33914429 415.54801136 C-187.16340639 400.14358999 -187.16340639 400.14358999 -185.14889771 398.12908131 C-184.98389771 396.97408131 -184.81889771 395.81908131 -184.64889771 394.62908131 C-184.14889771 391.12908131 -184.14889771 391.12908131 -183.14889771 390.12908131 C-182.7812904 387.80090167 -182.4464819 385.46724281 -182.14889771 383.12908131 C-181.48889771 383.12908131 -180.82889771 383.12908131 -180.14889771 383.12908131 C-180.12311646 382.52322193 -180.09733521 381.91736256 -180.07077271 381.29314381 C-179.14797552 367.66091256 -171.77074846 355.79480987 -165.14889771 344.12908131 C-164.48889771 344.12908131 -163.82889771 344.12908131 -163.14889771 344.12908131 C-163.14889771 343.13908131 -163.14889771 342.14908131 -163.14889771 341.12908131 C-162.48889771 341.12908131 -161.82889771 341.12908131 -161.14889771 341.12908131 C-161.14889771 340.13908131 -161.14889771 339.14908131 -161.14889771 338.12908131 C-160.48889771 338.12908131 -159.82889771 338.12908131 -159.14889771 338.12908131 C-158.87046021 336.67501881 -158.87046021 336.67501881 -158.58639771 335.19158131 C-157.34731177 330.75076967 -154.70206732 327.65538008 -151.80514771 324.14470631 C-150.00857494 322.02657102 -150.00857494 322.02657102 -148.14889771 319.12908131 C-147.48889771 319.12908131 -146.82889771 319.12908131 -146.14889771 319.12908131 C-146.14889771 318.46908131 -146.14889771 317.80908131 -146.14889771 317.12908131 C-145.48889771 317.12908131 -144.82889771 317.12908131 -144.14889771 317.12908131 C-143.81889771 315.80908131 -143.48889771 314.48908131 -143.14889771 313.12908131 C-142.48889771 313.12908131 -141.82889771 313.12908131 -141.14889771 313.12908131 C-141.67149264 309.43313885 -142.35299024 307.4757607 -144.96139771 304.81658131 C-173.75933965 273.19761648 -187.26090012 234.95506665 -187.33639771 192.62908131 C-187.33766663 191.92002644 -187.33893555 191.21097157 -187.34024292 190.48043019 C-187.33777435 178.31795795 -187.33777435 178.31795795 -186.14889771 177.12908131 C-185.93419326 175.58291106 -185.77824549 174.02846931 -185.64889771 172.47283131 C-185.56639771 171.53310475 -185.48389771 170.59337818 -185.39889771 169.62517506 C-185.31639771 168.63646412 -185.23389771 167.64775318 -185.14889771 166.62908131 C-184.98633077 164.68081821 -184.81987542 162.73287431 -184.64889771 160.78533131 C-184.57671021 159.91714772 -184.50452271 159.04896412 -184.43014771 158.15447193 C-184.14889771 156.12908131 -184.14889771 156.12908131 -183.14889771 155.12908131 C-182.91814689 153.78161047 -182.73736708 152.42530566 -182.58639771 151.06658131 C-182.44202271 149.76720631 -182.29764771 148.46783131 -182.14889771 147.12908131 C-181.48889771 147.12908131 -180.82889771 147.12908131 -180.14889771 147.12908131 C-180.21077271 146.18033131 -180.27264771 145.23158131 -180.33639771 144.25408131 C-180.36700312 139.28580299 -178.72465313 134.79069111 -177.14889771 130.12908131 C-176.48889771 130.12908131 -175.82889771 130.12908131 -175.14889771 130.12908131 C-175.14889771 129.13908131 -175.14889771 128.14908131 -175.14889771 127.12908131 C-174.48889771 127.12908131 -173.82889771 127.12908131 -173.14889771 127.12908131 C-173.15792114 126.56962818 -173.16694458 126.01017506 -173.17624146 125.43376881 C-172.86047149 116.89425063 -169.18793411 110.44785745 -165.14889771 103.12908131 C-164.48889771 103.12908131 -163.82889771 103.12908131 -163.14889771 103.12908131 C-162.96327271 102.01533131 -162.96327271 102.01533131 -162.77389771 100.87908131 C-162.1940307 98.32766646 -161.41181032 96.40232401 -160.14889771 94.12908131 C-159.48889771 94.12908131 -158.82889771 94.12908131 -158.14889771 94.12908131 C-158.02514771 93.36595631 -157.90139771 92.60283131 -157.77389771 91.81658131 C-157.14889771 89.12908131 -157.14889771 89.12908131 -155.14889771 86.12908131 C-154.48889771 86.12908131 -153.82889771 86.12908131 -153.14889771 86.12908131 C-152.83952271 85.34533131 -152.53014771 84.56158131 -152.21139771 83.75408131 C-151.14889771 81.12908131 -151.14889771 81.12908131 -150.14889771 79.12908131 C-149.48889771 79.12908131 -148.82889771 79.12908131 -148.14889771 79.12908131 C-147.92202271 78.42783131 -147.69514771 77.72658131 -147.46139771 77.00408131 C-145.81048483 73.38779596 -143.85801421 71.04138154 -141.14889771 68.12908131 C-140.48889771 68.12908131 -139.82889771 68.12908131 -139.14889771 68.12908131 C-138.75758667 67.25316334 -138.75758667 67.25316334 -138.35837036 66.35955006 C-136.17325122 62.3298269 -132.74696178 59.34575394 -129.52389771 56.12908131 C-128.39504151 55.00046681 -128.39504151 55.00046681 -127.24338013 53.84905201 C-120.08530197 46.83283626 -112.38358789 40.81880298 -104.14889771 35.12908131 C-103.3162439 34.53087574 -103.3162439 34.53087574 -102.4667688 33.92058522 C-98.49513677 31.12908131 -98.49513677 31.12908131 -95.14889771 31.12908131 C-95.14889771 30.46908131 -95.14889771 29.80908131 -95.14889771 29.12908131 C-92.54829266 27.78837813 -89.94384855 26.45634777 -87.33639771 25.12908131 C-86.59840943 24.74751881 -85.86042114 24.36595631 -85.10006958 23.97283131 C-84.38786255 23.61189381 -83.67565552 23.25095631 -82.94186646 22.87908131 C-82.28726441 22.54392506 -81.63266236 22.20876881 -80.95822388 21.86345631 C-79.14889771 21.12908131 -79.14889771 21.12908131 -76.14889771 21.12908131 C-76.14889771 20.46908131 -76.14889771 19.80908131 -76.14889771 19.12908131 C-62.70015055 12.42520887 -62.70015055 12.42520887 -55.14889771 12.12908131 C-55.14889771 11.46908131 -55.14889771 10.80908131 -55.14889771 10.12908131 C-54.12409302 9.93572193 -53.09928833 9.74236256 -52.04342896 9.54314381 C-50.6827017 9.28038268 -49.32202737 9.01734733 -47.96139771 8.75408131 C-47.28786255 8.62775318 -46.61432739 8.50142506 -45.92038208 8.37126881 C-42.1174589 7.62923502 -38.7302054 6.57155246 -35.14889771 5.12908131 C-32.81681751 5.05261966 -30.48043893 5.03764832 -28.14889771 5.12908131 C-28.14889771 4.46908131 -28.14889771 3.80908131 -28.14889771 3.12908131 C-27.20252442 3.04605763 -27.20252442 3.04605763 -26.23703247 2.9613567 C-23.39472091 2.70940011 -20.55307552 2.45058362 -17.71139771 2.19158131 C-16.22156372 2.06106373 -16.22156372 2.06106373 -14.70163208 1.92790943 C-13.28527466 1.79739186 -13.28527466 1.79739186 -11.84030396 1.66423756 C-10.52848145 1.54640919 -10.52848145 1.54640919 -9.19015747 1.42620045 C-5.99967282 0.96180387 -3.59629781 0.00891516 0 0 Z " fill="#0E273F" transform="translate(264.1488977074623,66.8709186911583)"/>
<path d="M0 0 C1.83440647 0.00056528 3.66881339 0.00024527 5.5032196 -0.00088501 C10.44448138 -0.00145495 15.38564454 0.01024079 20.32688355 0.02426291 C25.50516388 0.03683055 30.68344688 0.0379455 35.86174011 0.04031372 C45.65030216 0.04651085 55.43881912 0.06289758 65.22736138 0.0830127 C76.37859309 0.10542693 87.52982704 0.11637898 98.68107569 0.12640357 C121.6040591 0.1472655 144.5270026 0.18240686 167.44995117 0.22705078 C166.97532368 2.54048669 166.49512838 4.85278097 166.01245117 7.16455078 C165.74561523 8.45232422 165.4787793 9.74009766 165.20385742 11.06689453 C164.44995117 14.22705078 164.44995117 14.22705078 163.44995117 15.22705078 C162.91818719 17.80096719 162.48564318 20.38564595 162.04760742 22.97705078 C161.85038086 23.71955078 161.6531543 24.46205078 161.44995117 25.22705078 C158.89557506 26.50423884 157.03406336 26.38666543 154.17407227 26.43237305 C152.52258682 26.46229088 152.52258682 26.46229088 150.83773804 26.49281311 C149.64500275 26.5095256 148.45226746 26.5262381 147.22338867 26.54345703 C146.0054361 26.56423813 144.78748352 26.58501923 143.53262329 26.60643005 C139.63012497 26.67197662 135.72755767 26.73083434 131.82495117 26.78955078 C129.18431895 26.83273113 126.54369378 26.87634526 123.90307617 26.92041016 C117.41877474 27.02766322 110.93440423 27.12942008 104.44995117 27.22705078 C104.44859464 27.97675614 104.44723811 28.72646151 104.44584048 29.49888521 C104.36513094 73.96599718 104.27415203 118.43307802 104.16989956 162.90014133 C104.1573812 168.2434046 104.14494835 173.58666805 104.13256836 178.92993164 C104.13010237 179.99364646 104.12763637 181.05736127 104.12509565 182.15330987 C104.08540871 199.36029458 104.0526434 216.56728581 104.02245136 233.7742895 C103.99130003 251.43986537 103.95267495 269.1054136 103.90716112 286.77095836 C103.87932734 297.6650957 103.85727221 308.5592129 103.84268866 319.45337617 C103.83211893 326.93132217 103.8142674 334.40922908 103.79078414 341.88714559 C103.77746255 346.19675689 103.76726095 350.50631359 103.76573753 354.81594658 C103.76426809 358.7711425 103.75353694 362.72620724 103.73581676 366.68136274 C103.73101552 368.10287791 103.72944791 369.52440901 103.73167236 370.94593055 C103.74423434 380.5605231 102.92943807 389.74444729 101.44995117 399.22705078 C100.78995117 399.22705078 100.12995117 399.22705078 99.44995117 399.22705078 C99.11995117 401.20705078 98.78995117 403.18705078 98.44995117 405.22705078 C97.45995117 405.55705078 96.46995117 405.88705078 95.44995117 406.22705078 C95.11995117 407.21705078 94.78995117 408.20705078 94.44995117 409.22705078 C89.99280831 413.22705078 89.99280831 413.22705078 87.44995117 413.22705078 C87.44995117 413.88705078 87.44995117 414.54705078 87.44995117 415.22705078 C75.92095427 423.26961563 62.36490433 428.45067378 48.44995117 430.22705078 C48.11995117 430.55705078 47.78995117 430.88705078 47.44995117 431.22705078 C35.11636506 432.96050086 22.35820638 432.41318252 9.93896484 432.41235352 C6.28821058 432.41453539 2.63776145 432.43273187 -1.01293945 432.45166016 C-43.92543983 432.55516564 -43.92543983 432.55516564 -62.55004883 423.22705078 C-63.9519043 422.57929687 -63.9519043 422.57929687 -65.38208008 421.91845703 C-87.26716216 411.5518392 -103.9572109 393.16422013 -112.23461914 370.33935547 C-118.87374363 350.15682494 -117.23357845 328.08070992 -108.36254883 308.97705078 C-99.85852823 293.0297648 -87.59033205 283.00190978 -70.55004883 277.22705078 C-61.48425025 274.59946398 -52.99736693 273.80364107 -43.58984375 273.88647461 C-42.24804198 273.88732349 -40.90623883 273.88684067 -39.56443787 273.88514709 C-35.96602278 273.88429587 -32.36791542 273.90177778 -28.76957107 273.92286897 C-24.99266278 273.94178353 -21.21574534 273.94339773 -17.438797 273.94694519 C-10.30638701 273.95622268 -3.17411705 273.98077742 3.95823163 274.01099366 C13.61013041 274.05098538 23.26206822 274.06702732 32.91402912 274.08450031 C48.09277443 274.11260232 63.27122443 274.17240008 78.44995117 274.22705078 C78.44995117 245.18705078 78.44995117 216.14705078 78.44995117 186.22705078 C65.95506836 186.24445313 65.95506836 186.24445313 53.20776367 186.26220703 C47.24861872 186.26796873 41.28947587 186.27309456 35.3303299 186.27730465 C27.6175932 186.28283805 19.90486736 186.28985438 12.19213867 186.30249023 C5.42943083 186.31356433 -1.33326525 186.31934032 -8.0959816 186.32192802 C-10.67226471 186.32377147 -13.2485472 186.32737124 -15.82482529 186.33278084 C-19.44141769 186.34007081 -23.05796194 186.34103837 -26.67456055 186.34057617 C-28.26168602 186.34596909 -28.26168602 186.34596909 -29.88087463 186.35147095 C-55.68288148 186.31593798 -78.15019362 178.12484507 -96.82739258 160.03955078 C-109.73912967 146.70174489 -117.84235545 127.77451466 -118.55004883 109.22705078 C-118.60161133 108.36466797 -118.65317383 107.50228516 -118.70629883 106.61376953 C-119.20971991 91.44820932 -116.11333826 76.86354114 -109.55004883 63.22705078 C-109.249375 62.59283203 -108.94870117 61.95861328 -108.63891602 61.30517578 C-104.31735484 52.32997084 -99.32242764 44.60141882 -92.55004883 37.22705078 C-92.11208984 36.74139648 -91.67413086 36.25574219 -91.22290039 35.75537109 C-77.31143568 20.46944975 -59.53744736 10.2840681 -39.80004883 4.35205078 C-39.16405762 4.1608667 -38.52806641 3.96968262 -37.87280273 3.77270508 C-25.33526973 0.28266399 -12.90113404 -0.05618409 0 0 Z " fill="#FEFEFE" transform="translate(287.550048828125,156.77294921875)"/>
<path d="M0 0 C0.89200527 0.00291284 1.78401053 0.00582568 2.70304626 0.00882679 C3.64311773 0.00797237 4.5831892 0.00711794 5.55174768 0.00623763 C8.72715366 0.00457995 11.90250775 0.01010888 15.07790893 0.01555592 C17.34403746 0.01583775 19.61016608 0.01568013 21.87629455 0.01511341 C28.04960011 0.0148253 34.22288642 0.02072428 40.39618748 0.02768737 C46.83977119 0.03391859 53.28335528 0.03452452 59.72694153 0.03571278 C70.5490126 0.03847249 81.37107574 0.04472804 92.19314331 0.05364186 C103.34190597 0.06281523 114.4906667 0.06989643 125.63943237 0.07414967 C126.32617863 0.07441239 127.01292489 0.07467512 127.72048164 0.0749458 C131.16554738 0.0762508 134.61061314 0.07751452 138.0556789 0.0787577 C166.65415816 0.08913121 195.25262995 0.10682442 223.85110229 0.12908131 C223.26091659 3.15471091 222.62474516 6.05079803 221.6269812 8.96843678 C221.38187805 9.6899593 221.1367749 10.41148182 220.88424438 11.15486866 C220.48498749 12.31386173 220.48498749 12.31386173 220.07766479 13.49626881 C219.79795837 14.31573994 219.51825195 15.13521107 219.23006958 15.97951466 C218.31540567 18.65552162 217.39589214 21.32983233 216.47610229 24.00408131 C215.84205191 25.85528453 215.20810088 27.70652179 214.57424682 29.55779225 C210.27715557 42.08596037 205.89924951 54.58405966 201.40432495 67.04265553 C198.95565015 73.86198022 196.75710693 80.6793255 194.84768432 87.6710735 C194.35437622 88.88778736 194.35437622 88.88778736 193.85110229 90.12908131 C190.33767719 91.30022301 187.19657816 91.25490483 183.54345459 91.22914845 C182.79334519 91.22788617 182.0432358 91.2266239 181.27039582 91.22532338 C178.74892144 91.21993264 176.22753165 91.20740564 173.70608276 91.19499928 C171.90073534 91.18980706 170.09538648 91.18509873 168.29003662 91.18083912 C164.39570447 91.17088505 160.50139619 91.15802945 156.60707992 91.14311558 C150.43567332 91.12004688 144.26426997 91.10674468 138.09283203 91.09542042 C120.54069645 91.06199895 102.98860791 91.02063797 85.43655151 90.95769459 C75.74728267 90.92303 66.05804969 90.89931069 56.36872536 90.88748616 C51.24683321 90.88074931 46.12509276 90.86843198 41.00325912 90.8424564 C36.17204259 90.81795944 31.34099783 90.8078137 26.50972122 90.80805165 C24.74948131 90.80565606 22.9892387 90.79820079 21.22904724 90.78492314 C6.77868424 90.68059533 -7.39915575 91.96229794 -21.14889771 96.75408131 C-21.8825354 97.0056902 -22.6161731 97.25729908 -23.37204224 97.51653248 C-50.77602034 107.34717519 -72.23872051 126.324411 -84.96139771 152.44158131 C-90.08001129 163.35090564 -93.65120545 175.01135679 -94.14889771 187.12908131 C-94.18885864 188.03658131 -94.22881958 188.94408131 -94.26999146 189.87908131 C-94.75983154 212.00832754 -87.8202895 233.6868492 -72.56393677 249.92937428 C-63.82962159 258.73206565 -53.44362581 264.28394478 -42.14889771 269.12908131 C-41.49276489 269.47970631 -40.83663208 269.83033131 -40.16061646 270.19158131 C-37.51009025 271.42677799 -34.87235059 272.03609396 -32.02389771 272.69158131 C-30.44221802 273.0647649 -30.44221802 273.0647649 -28.82858521 273.44548756 C-20.3428889 275.02191734 -11.88612613 275.28755457 -3.27340943 275.33440357 C-2.1307814 275.34430317 -0.98815338 275.35420277 0.18909973 275.36440235 C3.9331843 275.39577038 7.67728152 275.42067629 11.42141479 275.44548756 C14.03029453 275.46607845 16.63917109 275.48707546 19.24804443 275.50846058 C25.39235752 275.55814574 31.53669535 275.60317304 37.68105632 275.64648294 C45.37058379 275.70093701 53.06005996 275.76168687 60.74953979 275.82244068 C74.45002101 275.93065929 88.15055011 276.02943322 101.85110229 276.12908131 C101.85110229 305.16908131 101.85110229 334.20908131 101.85110229 364.12908131 C71.32671431 364.28973598 71.32671431 364.28973598 56.0794844 364.33009678 C47.88444576 364.35212883 39.68957273 364.37994742 31.49465698 364.43083912 C24.99889611 364.471159 18.50326109 364.49661912 12.00737852 364.50543529 C8.57919674 364.51057521 5.15137446 364.52233651 1.72330993 364.55200154 C-19.80694518 364.7172894 -40.44665091 362.93602716 -61.14889771 356.75408131 C-62.18739868 356.45155445 -63.22589966 356.1490276 -64.29587036 355.83733326 C-110.84410691 342.04646877 -145.9817391 312.52868046 -169.29049927 270.0485149 C-182.39666167 245.44722757 -187.29988595 220.32305645 -187.33639771 192.62908131 C-187.33757599 191.92029835 -187.33875427 191.21151539 -187.33996826 190.48125416 C-187.33767595 178.31785955 -187.33767595 178.31785955 -186.14889771 177.12908131 C-185.93419326 175.58291106 -185.77824549 174.02846931 -185.64889771 172.47283131 C-185.56639771 171.53310475 -185.48389771 170.59337818 -185.39889771 169.62517506 C-185.31639771 168.63646412 -185.23389771 167.64775318 -185.14889771 166.62908131 C-184.98633077 164.68081821 -184.81987542 162.73287431 -184.64889771 160.78533131 C-184.57671021 159.91714772 -184.50452271 159.04896412 -184.43014771 158.15447193 C-184.14889771 156.12908131 -184.14889771 156.12908131 -183.14889771 155.12908131 C-182.91814689 153.78161047 -182.73736708 152.42530566 -182.58639771 151.06658131 C-182.44202271 149.76720631 -182.29764771 148.46783131 -182.14889771 147.12908131 C-181.48889771 147.12908131 -180.82889771 147.12908131 -180.14889771 147.12908131 C-180.21077271 146.18033131 -180.27264771 145.23158131 -180.33639771 144.25408131 C-180.36700312 139.28580299 -178.72465313 134.79069111 -177.14889771 130.12908131 C-176.48889771 130.12908131 -175.82889771 130.12908131 -175.14889771 130.12908131 C-175.14889771 129.13908131 -175.14889771 128.14908131 -175.14889771 127.12908131 C-174.48889771 127.12908131 -173.82889771 127.12908131 -173.14889771 127.12908131 C-173.15792114 126.56962818 -173.16694458 126.01017506 -173.17624146 125.43376881 C-172.86047149 116.89425063 -169.18793411 110.44785745 -165.14889771 103.12908131 C-164.48889771 103.12908131 -163.82889771 103.12908131 -163.14889771 103.12908131 C-162.96327271 102.01533131 -162.96327271 102.01533131 -162.77389771 100.87908131 C-162.1940307 98.32766646 -161.41181032 96.40232401 -160.14889771 94.12908131 C-159.48889771 94.12908131 -158.82889771 94.12908131 -158.14889771 94.12908131 C-158.02514771 93.36595631 -157.90139771 92.60283131 -157.77389771 91.81658131 C-157.14889771 89.12908131 -157.14889771 89.12908131 -155.14889771 86.12908131 C-154.48889771 86.12908131 -153.82889771 86.12908131 -153.14889771 86.12908131 C-152.83952271 85.34533131 -152.53014771 84.56158131 -152.21139771 83.75408131 C-151.14889771 81.12908131 -151.14889771 81.12908131 -150.14889771 79.12908131 C-149.48889771 79.12908131 -148.82889771 79.12908131 -148.14889771 79.12908131 C-147.92202271 78.42783131 -147.69514771 77.72658131 -147.46139771 77.00408131 C-145.81048483 73.38779596 -143.85801421 71.04138154 -141.14889771 68.12908131 C-140.48889771 68.12908131 -139.82889771 68.12908131 -139.14889771 68.12908131 C-138.75758667 67.25316334 -138.75758667 67.25316334 -138.35837036 66.35955006 C-136.17325122 62.3298269 -132.74696178 59.34575394 -129.52389771 56.12908131 C-128.39504151 55.00046681 -128.39504151 55.00046681 -127.24338013 53.84905201 C-120.08530197 46.83283626 -112.38358789 40.81880298 -104.14889771 35.12908131 C-103.3162439 34.53087574 -103.3162439 34.53087574 -102.4667688 33.92058522 C-98.49513677 31.12908131 -98.49513677 31.12908131 -95.14889771 31.12908131 C-95.14889771 30.46908131 -95.14889771 29.80908131 -95.14889771 29.12908131 C-92.54829266 27.78837813 -89.94384855 26.45634777 -87.33639771 25.12908131 C-86.59840943 24.74751881 -85.86042114 24.36595631 -85.10006958 23.97283131 C-84.38786255 23.61189381 -83.67565552 23.25095631 -82.94186646 22.87908131 C-82.28726441 22.54392506 -81.63266236 22.20876881 -80.95822388 21.86345631 C-79.14889771 21.12908131 -79.14889771 21.12908131 -76.14889771 21.12908131 C-76.14889771 20.46908131 -76.14889771 19.80908131 -76.14889771 19.12908131 C-62.70015055 12.42520887 -62.70015055 12.42520887 -55.14889771 12.12908131 C-55.14889771 11.46908131 -55.14889771 10.80908131 -55.14889771 10.12908131 C-54.12409302 9.93572193 -53.09928833 9.74236256 -52.04342896 9.54314381 C-50.6827017 9.28038268 -49.32202737 9.01734733 -47.96139771 8.75408131 C-47.28786255 8.62775318 -46.61432739 8.50142506 -45.92038208 8.37126881 C-42.1174589 7.62923502 -38.7302054 6.57155246 -35.14889771 5.12908131 C-32.81681751 5.05261966 -30.48043893 5.03764832 -28.14889771 5.12908131 C-28.14889771 4.46908131 -28.14889771 3.80908131 -28.14889771 3.12908131 C-27.20252442 3.04605763 -27.20252442 3.04605763 -26.23703247 2.9613567 C-23.39472091 2.70940011 -20.55307552 2.45058362 -17.71139771 2.19158131 C-16.22156372 2.06106373 -16.22156372 2.06106373 -14.70163208 1.92790943 C-13.28527466 1.79739186 -13.28527466 1.79739186 -11.84030396 1.66423756 C-10.52848145 1.54640919 -10.52848145 1.54640919 -9.19015747 1.42620045 C-5.99967282 0.96180387 -3.59629781 0.00891516 0 0 Z " fill="#FD7210" transform="translate(264.1488977074623,66.8709186911583)"/>
<path d="M0 0 C10.67419698 -0.02312328 21.34838806 -0.04091501 32.02260494 -0.05181217 C36.97853922 -0.05704103 41.93445642 -0.06413874 46.89038086 -0.07543945 C51.66898836 -0.08626822 56.44757938 -0.09227681 61.2261982 -0.09487724 C63.05353619 -0.09673151 64.88087324 -0.10035216 66.70820427 -0.10573006 C69.25853329 -0.11294036 71.80879337 -0.11399095 74.35913086 -0.11352539 C75.12229614 -0.11712067 75.88546143 -0.12071594 76.67175293 -0.12442017 C81.88594784 -0.11405216 81.88594784 -0.11405216 83 1 C83.09676849 2.3423322 83.12447433 3.68972069 83.1241985 5.03553635 C83.12644579 5.91216813 83.12869308 6.78879992 83.13100848 7.69199631 C83.12838146 8.66802001 83.12575445 9.64404372 83.12304783 10.6496439 C83.12420167 11.68070569 83.12535552 12.71176748 83.12654433 13.77407357 C83.12921943 17.27546922 83.12468153 20.77682012 83.12025452 24.2782135 C83.12069004 26.79520489 83.12156459 29.31219623 83.12284368 31.82918733 C83.12462139 37.32553237 83.12326383 42.8218632 83.11920547 48.31820679 C83.11318748 56.49115469 83.11286808 64.66409574 83.11374746 72.83704545 C83.11506355 86.58311336 83.1117117 100.32917648 83.10573006 114.075243 C83.09981977 127.69212938 83.09596547 141.30901376 83.09487724 154.92590141 C83.0948085 155.77150421 83.09473976 156.617107 83.09466894 157.48833413 C83.09433062 161.78245257 83.09402923 166.076571 83.09374207 170.37068944 C83.09163979 200.8123132 83.08489724 231.25393435 83.07543945 261.69555664 C83.06626002 291.2753091 83.05917396 320.85506085 83.05493164 350.43481445 C83.05480011 351.34605703 83.05466859 352.25729961 83.05453308 353.1961556 C83.05321459 362.34694993 83.05193877 371.49774427 83.05069422 380.64853861 C83.04815778 399.29095591 83.04533652 417.93337317 83.04234314 436.57579041 C83.0421372 437.86160684 83.0421372 437.86160684 83.04192711 439.17339935 C83.03272127 496.44893405 83.01664768 553.72446706 83 611 C52.97 611 22.94 611 -8 611 C-8 515.96 -8 420.92 -8 323 C-7.34 323 -6.68 323 -6 323 C-6.33 417.38 -6.66 511.76 -7 609 C21.71 609 50.42 609 80 609 C80 408.36 80 207.72 80 1 C40.895 1.495 40.895 1.495 1 2 C0.01 3.98 -0.98 5.96 -2 8 C-2.66 7.67 -3.32 7.34 -4 7 C-3.67 5.68 -3.34 4.36 -3 3 C-2.34 3 -1.68 3 -1 3 C-0.67 2.01 -0.34 1.02 0 0 Z " fill="#36404E" transform="translate(681,73)"/>
<path d="M0 0 C0.97484848 0.00222061 1.94969696 0.00444122 2.9540863 0.00672913 C4.05515213 0.00680466 5.15621796 0.00688019 6.29064941 0.00695801 C8.08749428 0.01469994 8.08749428 0.01469994 9.92063904 0.02259827 C11.14000656 0.02401321 12.35937408 0.02542816 13.61569214 0.02688599 C17.52856349 0.03250485 21.4413786 0.04506055 25.35423279 0.05775452 C27.99941426 0.06276709 30.64459662 0.06733041 33.28977966 0.07142639 C39.79045005 0.08248041 46.2910874 0.09923688 52.79173279 0.12025452 C52.79173279 0.45025452 52.79173279 0.78025452 52.79173279 1.12025452 C34.97173279 1.12025452 17.15173279 1.12025452 -1.20826721 1.12025452 C-1.20382599 5.62956635 -1.19938477 10.13887817 -1.19480896 14.78483582 C-1.15502766 56.11710702 -1.12516142 97.44937596 -1.10613655 138.78166211 C-1.10363508 144.19660962 -1.10104644 149.61155708 -1.09840393 155.02650452 C-1.097617 156.64356162 -1.097617 156.64356162 -1.09681417 158.29328655 C-1.08810683 175.75856135 -1.07233505 193.22382302 -1.05396162 210.68909003 C-1.03527172 228.60433478 -1.02415242 246.51957263 -1.02009022 264.43482673 C-1.01734328 275.49330397 -1.00866101 286.55174406 -0.99243428 297.61020987 C-0.98187864 305.18899102 -0.97866336 312.76775291 -0.98126446 320.34654088 C-0.98254796 324.7218854 -0.98055283 329.09716492 -0.96985626 333.47249794 C-0.96013721 337.47716168 -0.95962355 341.48171662 -0.96646942 345.48638533 C-0.96731577 346.93601362 -0.9647673 348.38564864 -0.95850085 349.83526362 C-0.95048089 351.80485872 -0.95599318 353.77449502 -0.96217155 355.74409676 C-0.96103239 357.38562774 -0.96103239 357.38562774 -0.95987022 359.06032097 C-1.2267707 362.34819388 -2.04412989 365.04445393 -3.20826721 368.12025452 C-3.86826721 368.12025452 -4.52826721 368.12025452 -5.20826721 368.12025452 C-5.13783722 367.56948999 -5.06740724 367.01872547 -4.99484301 366.45127112 C-4.10972445 358.75593909 -4.05799519 351.10889563 -4.05677795 343.37133789 C-4.05292162 341.89086515 -4.04863301 340.41039348 -4.04395247 338.92992312 C-4.03238243 334.88408607 -4.02684509 330.83826024 -4.02231765 326.79241002 C-4.01634211 322.42101098 -4.00468145 318.04962668 -3.99368286 313.67823792 C-3.97537453 306.1116875 -3.960513 298.54513672 -3.94790649 290.97857475 C-3.92958579 280.03760544 -3.90492327 269.0966573 -3.87853259 258.1557048 C-3.83578735 240.40178873 -3.79665716 222.64786685 -3.76051331 204.89393616 C-3.7583505 203.83220401 -3.7561877 202.77047186 -3.75395936 201.67656601 C-3.73642872 193.05684045 -3.71907574 184.43711453 -3.70175648 175.81738853 C-3.6865881 168.26933654 -3.67135747 160.72128468 -3.65602112 153.17323303 C-3.65386225 152.11006825 -3.65170338 151.04690347 -3.64947909 149.95152157 C-3.61341788 132.25180734 -3.57347473 114.55210395 -3.53071833 96.85240465 C-3.50452579 85.93146201 -3.48187577 75.01052272 -3.46373475 64.08956368 C-3.45110295 56.61836989 -3.43499032 49.14718899 -3.4160856 41.67600846 C-3.40529227 37.35997169 -3.39618651 33.04394749 -3.39138985 28.72789955 C-3.38698133 24.78374284 -3.37806837 20.83962397 -3.36544663 16.89548523 C-3.36168736 15.46240114 -3.35964848 14.02931139 -3.35942644 12.59622239 C-3.35889122 10.66106514 -3.35172378 8.725913 -3.3441391 6.79077053 C-3.34202313 5.71208971 -3.33990716 4.6334089 -3.33772707 3.52204078 C-3.16991831 0.40879177 -3.10483271 0.16907834 0 0 Z " fill="#868E95" transform="translate(394.20826721191406,182.87974548339844)"/>
<path d="M0 0 C27.06 0 54.12 0 82 0 C81.67 113.52 81.34 227.04 81 344 C80.67 344 80.34 344 80 344 C80 230.81 80 117.62 80 1 C40.895 1.495 40.895 1.495 1 2 C0.01 3.98 -0.98 5.96 -2 8 C-2.66 7.67 -3.32 7.34 -4 7 C-3.67 5.68 -3.34 4.36 -3 3 C-2.34 3 -1.68 3 -1 3 C-0.67 2.01 -0.34 1.02 0 0 Z " fill="#153049" transform="translate(681,73)"/>
<path d="M0 0 C27.06 0 54.12 0 82 0 C81.67 32.01 81.34 64.02 81 97 C80.67 97 80.34 97 80 97 C80 65.32 80 33.64 80 1 C40.895 1.495 40.895 1.495 1 2 C0.01 3.98 -0.98 5.96 -2 8 C-2.66 7.67 -3.32 7.34 -4 7 C-3.67 5.68 -3.34 4.36 -3 3 C-2.34 3 -1.68 3 -1 3 C-0.67 2.01 -0.34 1.02 0 0 Z " fill="#163049" transform="translate(681,73)"/>
<path d="M0 0 C0.33 0 0.66 0 1 0 C2.37556265 6.37760864 2.37556265 6.37760864 0.62109375 9.28515625 C-1.34201826 12.57277756 -1.91071007 15.49801554 -2.625 19.25 C-3.91002571 25.91002571 -3.91002571 25.91002571 -5 27 C-5.5466307 30.49672964 -5.77295685 34.03646017 -6.0625 37.5625 C-6.15265381 38.65336914 -6.24280762 39.74423828 -6.33569336 40.86816406 C-7.13788861 51.73309042 -7.14588373 62.56137305 -7.01391602 73.44750977 C-7.00030029 74.74873779 -6.98668457 76.04996582 -6.97265625 77.390625 C-6.95468994 78.54594727 -6.93672363 79.70126953 -6.91821289 80.89160156 C-6.99295383 83.73220352 -7.34170896 86.24298296 -8 89 C-8.33 89 -8.66 89 -9 89 C-10.05357597 81.02378191 -10.15470535 73.08527599 -10.13037109 65.0559082 C-10.12493091 62.91024975 -10.13038867 60.76479338 -10.13671875 58.61914062 C-10.13605928 57.25520787 -10.13478085 55.89127524 -10.1328125 54.52734375 C-10.13168457 53.29749756 -10.13055664 52.06765137 -10.12939453 50.80053711 C-10 48 -10 48 -9 47 C-8.78529555 45.45382975 -8.62934778 43.89938801 -8.5 42.34375 C-8.4175 41.40402344 -8.335 40.46429688 -8.25 39.49609375 C-8.1675 38.50738281 -8.085 37.51867187 -8 36.5 C-7.83743307 34.5517369 -7.67097771 32.603793 -7.5 30.65625 C-7.4278125 29.78806641 -7.355625 28.91988281 -7.28125 28.02539062 C-7 26 -7 26 -6 25 C-5.76924918 23.65252916 -5.58846937 22.29622435 -5.4375 20.9375 C-5.293125 19.638125 -5.14875 18.33875 -5 17 C-4.34 17 -3.68 17 -3 17 C-3.061875 16.05125 -3.12375 15.1025 -3.1875 14.125 C-3.21810541 9.15672169 -1.57575543 4.6616098 0 0 Z " fill="#FC873C" transform="translate(87,197)"/>
<path d="M0 0 C0.33 0 0.66 0 1 0 C1.04675463 14.89049636 1.08200582 29.78098703 1.10362434 44.67154121 C1.11392974 51.58573996 1.12797595 58.49989306 1.15087891 65.4140625 C1.17296886 72.08598331 1.18456746 78.75784688 1.18975449 85.42980576 C1.19345126 87.97590761 1.20067004 90.52200686 1.21146011 93.06808853 C1.22596712 96.63285188 1.22797824 100.19741894 1.22705078 103.76220703 C1.23424133 104.81597031 1.24143188 105.86973358 1.24884033 106.95542908 C1.23451784 112.03920426 1.04087119 116.24331637 -1 121 C-1.66 121 -2.32 121 -3 121 C-2.86042877 120.27678558 -2.72085754 119.55357117 -2.57705688 118.80844116 C-0.5218614 106.65239398 -0.64748821 94.52241996 -0.5859375 82.2265625 C-0.56719662 79.84759878 -0.5476211 77.4686415 -0.5272522 75.08969116 C-0.47623336 68.87235335 -0.43644692 62.65499405 -0.39910889 56.43756104 C-0.35887819 50.07550882 -0.30787344 43.71354361 -0.2578125 37.3515625 C-0.16141199 24.90110306 -0.07689394 12.45059414 0 0 Z " fill="#5B6F80" transform="translate(392,430)"/>
<path d="M0 0 C27.06 0 54.12 0 82 0 C82 0.33 82 0.66 82 1 C55.27 1.33 28.54 1.66 1 2 C0.01 3.98 -0.98 5.96 -2 8 C-2.66 7.67 -3.32 7.34 -4 7 C-3.67 5.68 -3.34 4.36 -3 3 C-2.34 3 -1.68 3 -1 3 C-0.67 2.01 -0.34 1.02 0 0 Z " fill="#6E7180" transform="translate(681,73)"/>
<path d="M0 0 C1.134375 0.020625 2.26875 0.04125 3.4375 0.0625 C3.4375 0.3925 3.4375 0.7225 3.4375 1.0625 C1.7875 1.0625 0.1375 1.0625 -1.5625 1.0625 C-1.5625 1.7225 -1.5625 2.3825 -1.5625 3.0625 C-10.86024178 3.83963406 -20.07010562 4.20114751 -29.3984375 4.16015625 C-30.6438028 4.1587413 -31.88916809 4.15732635 -33.17227173 4.15586853 C-37.09404043 4.1503351 -41.01574897 4.13779567 -44.9375 4.125 C-47.61979021 4.11940226 -50.30208202 4.11534597 -52.984375 4.11132812 C-59.51043669 4.1003876 -66.03646405 4.08371748 -72.5625 4.0625 C-72.5625 3.7325 -72.5625 3.4025 -72.5625 3.0625 C-71.91707245 3.05219254 -71.2716449 3.04188507 -70.60665894 3.03126526 C-63.8244415 2.92219179 -57.04233039 2.80769029 -50.26025391 2.69018555 C-47.73683927 2.64715632 -45.21340147 2.60546227 -42.68994141 2.56518555 C-28.49363582 2.33766264 -13.53621794 0.23747751 0 0 Z " fill="#939498" transform="translate(339.5625,585.9375)"/>
<path d="M0 0 C6.69378337 0.21342498 13.39081775 0.92408661 20 2 C20 2.33 20 2.66 20 3 C17.5 3.3125 15 3.625 12.5 3.9375 C11.80390625 4.02451172 11.1078125 4.11152344 10.390625 4.20117188 C7.48828125 4.56396484 4.5859375 4.92675781 1.68359375 5.28955078 C0.95269531 5.38091309 0.22179687 5.47227539 -0.53125 5.56640625 C-2.24828125 5.78103516 -2.24828125 5.78103516 -4 6 C-2.68 5.34 -1.36 4.68 0 4 C-0.33 3.01 -0.66 2.02 -1 1 C-0.67 0.67 -0.34 0.34 0 0 Z " fill="#0F1A39" transform="translate(220,428)"/>
<path d="M0 0 C0.33 0 0.66 0 1 0 C2.37556265 6.37760864 2.37556265 6.37760864 0.62109375 9.28515625 C-1.34201826 12.57277756 -1.91071007 15.49801554 -2.625 19.25 C-3.91002571 25.91002571 -3.91002571 25.91002571 -5 27 C-5.23192865 28.51469448 -5.41215238 30.03754562 -5.5625 31.5625 C-5.64628906 32.38878906 -5.73007813 33.21507812 -5.81640625 34.06640625 C-5.87699219 34.70449219 -5.93757813 35.34257812 -6 36 C-6.66 35.67 -7.32 35.34 -8 35 C-7.85950482 33.52031676 -7.71245174 32.04125484 -7.5625 30.5625 C-7.48128906 29.73878906 -7.40007812 28.91507813 -7.31640625 28.06640625 C-7 26 -7 26 -6 25 C-5.76924918 23.65252916 -5.58846937 22.29622435 -5.4375 20.9375 C-5.293125 19.638125 -5.14875 18.33875 -5 17 C-4.34 17 -3.68 17 -3 17 C-3.061875 16.05125 -3.12375 15.1025 -3.1875 14.125 C-3.21810541 9.15672169 -1.57575543 4.6616098 0 0 Z " fill="#FD995B" transform="translate(87,197)"/>
<path d="M0 0 C6.6 0 13.2 0 20 0 C20 0.33 20 0.66 20 1 C10.595 1.495 10.595 1.495 1 2 C0.01 3.98 -0.98 5.96 -2 8 C-2.66 7.67 -3.32 7.34 -4 7 C-3.67 5.68 -3.34 4.36 -3 3 C-2.34 3 -1.68 3 -1 3 C-0.67 2.01 -0.34 1.02 0 0 Z " fill="#616878" transform="translate(681,73)"/>
<path d="M0 0 C1.134375 0.020625 2.26875 0.04125 3.4375 0.0625 C3.4375 0.3925 3.4375 0.7225 3.4375 1.0625 C1.7875 1.0625 0.1375 1.0625 -1.5625 1.0625 C-1.5625 1.7225 -1.5625 2.3825 -1.5625 3.0625 C-7.5025 3.3925 -13.4425 3.7225 -19.5625 4.0625 C-19.2325 3.4025 -18.9025 2.7425 -18.5625 2.0625 C-16.23866498 1.780735 -13.90073176 1.61078316 -11.5625 1.5 C-7.26628494 1.28778776 -4.00762209 0.07030916 0 0 Z " fill="#6B727E" transform="translate(339.5625,585.9375)"/>
<path d="M0 0 C0.5534764 2.07553648 1 3.84365964 1 6 C0.01 6 -0.98 6 -2 6 C-2 7.32 -2 8.64 -2 10 C-2.66 10 -3.32 10 -4 10 C-4 10.99 -4 11.98 -4 13 C-4.66 13 -5.32 13 -6 13 C-6 13.99 -6 14.98 -6 16 C-6.66 15.67 -7.32 15.34 -8 15 C-7.04416032 13.06126858 -6.08523808 11.1240567 -5.125 9.1875 C-4.32449219 7.56908203 -4.32449219 7.56908203 -3.5078125 5.91796875 C-2 3 -2 3 0 0 Z " fill="#677483" transform="translate(99,411)"/>
<path d="M0 0 C0.33 0 0.66 0 1 0 C0.67 3.3 0.34 6.6 0 10 C-0.66 10 -1.32 10 -2 10 C-2.144375 10.7425 -2.28875 11.485 -2.4375 12.25 C-2.90187492 14.52027739 -3.41863569 16.75759479 -4 19 C-4.66 18.67 -5.32 18.34 -6 18 C-5.37768356 15.9366887 -4.75203215 13.8743831 -4.125 11.8125 C-3.77695312 10.66394531 -3.42890625 9.51539063 -3.0703125 8.33203125 C-2.15781129 5.49128843 -1.15019636 2.75114535 0 0 Z " fill="#6F7987" transform="translate(628,219)"/>
<path d="M0 0 C0.33 0.66 0.66 1.32 1 2 C-6.11389522 10.81548975 -6.11389522 10.81548975 -11 12 C-7.49102731 7.81576108 -3.91939465 3.80411834 0 0 Z " fill="#FC934A" transform="translate(138,120)"/>
<path d="M0 0 C0.66 0.33 1.32 0.66 2 1 C0.95285076 2.32477959 -0.11344669 3.63443746 -1.1875 4.9375 C-1.77917969 5.66839844 -2.37085938 6.39929688 -2.98046875 7.15234375 C-5.32505203 9.29738803 -6.88391498 9.66094412 -10 10 C-6.92118304 6.12948725 -3.99926986 2.97088618 0 0 Z " fill="#FD954F" transform="translate(149,110)"/>
<path d="M0 0 C0.66 0.33 1.32 0.66 2 1 C0.28201227 3.8384145 -1.07018456 5.68152621 -4.26953125 6.77734375 C-6.50820309 7.26033279 -8.73321986 7.67548233 -11 8 C-7.4912812 4.90407165 -4.50802601 3.25805377 0 2 C0 1.34 0 0.68 0 0 Z " fill="#5E6C7C" transform="translate(375,570)"/>
<path d="M0 0 C0.66 0 1.32 0 2 0 C2.99 3.63 3.98 7.26 5 11 C4.34 11 3.68 11 3 11 C2.34 10.01 1.68 9.02 1 8 C0.01 7.34 -0.98 6.68 -2 6 C-1.34 4.02 -0.68 2.04 0 0 Z " fill="#161E36" transform="translate(460,148)"/>
<path d="M0 0 C0.66 0 1.32 0 2 0 C1.85831863 1.43791516 1.71148957 2.8753237 1.5625 4.3125 C1.48128906 5.11300781 1.40007812 5.91351562 1.31640625 6.73828125 C1 9 1 9 0 12 C-0.66 12 -1.32 12 -2 12 C-1.85904936 10.3745692 -1.71207913 8.74965949 -1.5625 7.125 C-1.48128906 6.22007812 -1.40007812 5.31515625 -1.31640625 4.3828125 C-1 2 -1 2 0 0 Z " fill="#4E5B6B" transform="translate(391,539)"/>
<path d="M0 0 C0.99 0 1.98 0 3 0 C5.21854707 4.62197306 6.38281159 7.76824163 6 13 C4.1727089 10.25906335 3.06301822 7.86174676 1.875 4.8125 C1.52179688 3.91144531 1.16859375 3.01039063 0.8046875 2.08203125 C0.53914063 1.39496094 0.27359375 0.70789063 0 0 Z " fill="#485362" transform="translate(464,404)"/>
<path d="M0 0 C0.98120464 3.05263664 0.98120464 4.94736336 0 8 C-0.66 8 -1.32 8 -2 8 C-2 8.99 -2 9.98 -2 11 C-2.66 11 -3.32 11 -4 11 C-4 12.32 -4 13.64 -4 15 C-4.66 14.67 -5.32 14.34 -6 14 C-5.37720331 12.41579871 -4.75166599 10.83267469 -4.125 9.25 C-3.60292969 7.92742187 -3.60292969 7.92742187 -3.0703125 6.578125 C-2.1353291 4.3259752 -1.12219206 2.16350541 0 0 Z " fill="#FDA56F" transform="translate(97,174)"/>
<path d="M0 0 C0.99 0 1.98 0 3 0 C6 6.625 6 6.625 6 10 C5.34 10 4.68 10 4 10 C2.68 6.7 1.36 3.4 0 0 Z " fill="#3D4B5B" transform="translate(509,517)"/>
<path d="M0 0 C2.92879371 0.62759865 5.36095629 1.58622659 8 3 C0.57142857 5.42857143 0.57142857 5.42857143 -3 4 C-1.68 3.67 -0.36 3.34 1 3 C0.67 2.01 0.34 1.02 0 0 Z " fill="#0D172B" transform="translate(219,429)"/>
<path d="M0 0 C3.69900008 0.88776002 7.34550461 1.94581864 11 3 C10.67 3.66 10.34 4.32 10 5 C6.37 4.01 2.74 3.02 -1 2 C-0.67 1.34 -0.34 0.68 0 0 Z " fill="#EB7C10" transform="translate(189,417)"/>
<path d="M0 0 C0.33 0 0.66 0 1 0 C1.31563182 5.26053037 0.66590937 8.44573816 -2 13 C-2.66 12.67 -3.32 12.34 -4 12 C-3.79503906 11.46890625 -3.59007812 10.9378125 -3.37890625 10.390625 C-3.10949219 9.68421875 -2.84007812 8.9778125 -2.5625 8.25 C-2.29566406 7.55390625 -2.02882813 6.8578125 -1.75390625 6.140625 C-1.03853307 4.10940997 -0.48634348 2.0964709 0 0 Z " fill="#9199A4" transform="translate(563,401)"/>
<path d="M0 0 C0.99 0 1.98 0 3 0 C3.33 1.32 3.66 2.64 4 4 C0.625 4.125 0.625 4.125 -3 4 C-3.66 3.34 -4.32 2.68 -5 2 C-3.35 2 -1.7 2 0 2 C0 1.34 0 0.68 0 0 Z " fill="#EC7910" transform="translate(229,425)"/>
<path d="M0 0 C0.33 0.66 0.66 1.32 1 2 C-0.97420135 4.52259061 -1.96745642 4.9929808 -5.1875 5.6875 C-6.5796875 5.8421875 -6.5796875 5.8421875 -8 6 C-5.51047079 3.33264727 -3.36591866 1.44253657 0 0 Z " fill="#FD9C5B" transform="translate(164,100)"/>
</svg>
